<mxfile host="app.diagrams.net" agent="Mozilla/5.0 (Windows NT 10.0; Win64; x64) AppleWebKit/537.36 (KHTML, like Gecko) Chrome/140.0.0.0 Safari/537.36" version="28.2.1">
  <diagram name="Página-1" id="sZasncI6ue1Ifw0npS4i">
    <mxGraphModel dx="1390" dy="1473" grid="1" gridSize="10" guides="1" tooltips="1" connect="1" arrows="1" fold="1" page="1" pageScale="1" pageWidth="827" pageHeight="1169" math="0" shadow="0">
      <root>
        <mxCell id="0" />
        <mxCell id="1" parent="0" />
        <mxCell id="rfBpb2KZAe2ndQMYpnKj-5" value="" style="edgeStyle=orthogonalEdgeStyle;rounded=0;orthogonalLoop=1;jettySize=auto;html=1;" edge="1" parent="1" source="rfBpb2KZAe2ndQMYpnKj-1" target="rfBpb2KZAe2ndQMYpnKj-3">
          <mxGeometry relative="1" as="geometry" />
        </mxCell>
        <mxCell id="rfBpb2KZAe2ndQMYpnKj-43" value="N" style="edgeLabel;html=1;align=center;verticalAlign=middle;resizable=0;points=[];" vertex="1" connectable="0" parent="rfBpb2KZAe2ndQMYpnKj-5">
          <mxGeometry x="-0.5133" y="1" relative="1" as="geometry">
            <mxPoint as="offset" />
          </mxGeometry>
        </mxCell>
        <mxCell id="rfBpb2KZAe2ndQMYpnKj-6" value="" style="edgeStyle=orthogonalEdgeStyle;rounded=0;orthogonalLoop=1;jettySize=auto;html=1;" edge="1" parent="1" source="rfBpb2KZAe2ndQMYpnKj-1" target="rfBpb2KZAe2ndQMYpnKj-4">
          <mxGeometry relative="1" as="geometry" />
        </mxCell>
        <mxCell id="rfBpb2KZAe2ndQMYpnKj-7" value="" style="edgeStyle=orthogonalEdgeStyle;rounded=0;orthogonalLoop=1;jettySize=auto;html=1;" edge="1" parent="1" source="rfBpb2KZAe2ndQMYpnKj-1" target="rfBpb2KZAe2ndQMYpnKj-2">
          <mxGeometry relative="1" as="geometry" />
        </mxCell>
        <mxCell id="rfBpb2KZAe2ndQMYpnKj-31" style="edgeStyle=orthogonalEdgeStyle;rounded=0;orthogonalLoop=1;jettySize=auto;html=1;exitX=1;exitY=1;exitDx=0;exitDy=0;endArrow=none;endFill=0;" edge="1" parent="1" source="rfBpb2KZAe2ndQMYpnKj-1" target="rfBpb2KZAe2ndQMYpnKj-30">
          <mxGeometry relative="1" as="geometry" />
        </mxCell>
        <mxCell id="rfBpb2KZAe2ndQMYpnKj-33" value="&lt;font style=&quot;vertical-align: inherit;&quot; dir=&quot;auto&quot;&gt;&lt;font style=&quot;vertical-align: inherit;&quot; dir=&quot;auto&quot;&gt;N&lt;/font&gt;&lt;/font&gt;" style="edgeLabel;html=1;align=center;verticalAlign=middle;resizable=0;points=[];" vertex="1" connectable="0" parent="rfBpb2KZAe2ndQMYpnKj-31">
          <mxGeometry x="-0.4281" y="4" relative="1" as="geometry">
            <mxPoint as="offset" />
          </mxGeometry>
        </mxCell>
        <mxCell id="rfBpb2KZAe2ndQMYpnKj-1" value="&lt;font style=&quot;vertical-align: inherit;&quot; dir=&quot;auto&quot;&gt;&lt;font style=&quot;vertical-align: inherit;&quot; dir=&quot;auto&quot;&gt;Produtos&amp;nbsp;&lt;/font&gt;&lt;/font&gt;" style="rounded=0;whiteSpace=wrap;html=1;" vertex="1" parent="1">
          <mxGeometry x="70" y="80" width="120" height="60" as="geometry" />
        </mxCell>
        <mxCell id="rfBpb2KZAe2ndQMYpnKj-2" value="&lt;font style=&quot;vertical-align: inherit;&quot; dir=&quot;auto&quot;&gt;&lt;font style=&quot;vertical-align: inherit;&quot; dir=&quot;auto&quot;&gt;Nome&lt;/font&gt;&lt;/font&gt;" style="ellipse;whiteSpace=wrap;html=1;" vertex="1" parent="1">
          <mxGeometry x="75" y="170" width="110" height="70" as="geometry" />
        </mxCell>
        <mxCell id="rfBpb2KZAe2ndQMYpnKj-3" value="&lt;font style=&quot;vertical-align: inherit;&quot; dir=&quot;auto&quot;&gt;&lt;font style=&quot;vertical-align: inherit;&quot; dir=&quot;auto&quot;&gt;&lt;font style=&quot;vertical-align: inherit;&quot; dir=&quot;auto&quot;&gt;&lt;font style=&quot;vertical-align: inherit;&quot; dir=&quot;auto&quot;&gt;quantidade em estoque&amp;nbsp;&lt;/font&gt;&lt;/font&gt;&lt;/font&gt;&lt;/font&gt;" style="ellipse;whiteSpace=wrap;html=1;" vertex="1" parent="1">
          <mxGeometry x="250" y="75" width="110" height="70" as="geometry" />
        </mxCell>
        <mxCell id="rfBpb2KZAe2ndQMYpnKj-4" value="&lt;font style=&quot;vertical-align: inherit;&quot; dir=&quot;auto&quot;&gt;&lt;font style=&quot;vertical-align: inherit;&quot; dir=&quot;auto&quot;&gt;Preço&lt;/font&gt;&lt;/font&gt;" style="ellipse;whiteSpace=wrap;html=1;" vertex="1" parent="1">
          <mxGeometry x="-110" y="75" width="110" height="70" as="geometry" />
        </mxCell>
        <mxCell id="rfBpb2KZAe2ndQMYpnKj-12" value="" style="edgeStyle=orthogonalEdgeStyle;rounded=0;orthogonalLoop=1;jettySize=auto;html=1;endArrow=none;endFill=0;" edge="1" parent="1" source="rfBpb2KZAe2ndQMYpnKj-8" target="rfBpb2KZAe2ndQMYpnKj-9">
          <mxGeometry relative="1" as="geometry" />
        </mxCell>
        <mxCell id="rfBpb2KZAe2ndQMYpnKj-13" value="" style="edgeStyle=orthogonalEdgeStyle;rounded=0;orthogonalLoop=1;jettySize=auto;html=1;endArrow=none;endFill=0;" edge="1" parent="1" source="rfBpb2KZAe2ndQMYpnKj-8" target="rfBpb2KZAe2ndQMYpnKj-11">
          <mxGeometry relative="1" as="geometry" />
        </mxCell>
        <mxCell id="rfBpb2KZAe2ndQMYpnKj-14" value="" style="edgeStyle=orthogonalEdgeStyle;rounded=0;orthogonalLoop=1;jettySize=auto;html=1;endArrow=none;endFill=0;" edge="1" parent="1" source="rfBpb2KZAe2ndQMYpnKj-8" target="rfBpb2KZAe2ndQMYpnKj-10">
          <mxGeometry relative="1" as="geometry" />
        </mxCell>
        <mxCell id="rfBpb2KZAe2ndQMYpnKj-44" value="N" style="edgeLabel;html=1;align=center;verticalAlign=middle;resizable=0;points=[];" vertex="1" connectable="0" parent="rfBpb2KZAe2ndQMYpnKj-14">
          <mxGeometry x="0.2455" y="-4" relative="1" as="geometry">
            <mxPoint as="offset" />
          </mxGeometry>
        </mxCell>
        <mxCell id="rfBpb2KZAe2ndQMYpnKj-23" style="edgeStyle=orthogonalEdgeStyle;rounded=0;orthogonalLoop=1;jettySize=auto;html=1;exitX=0;exitY=1;exitDx=0;exitDy=0;endArrow=none;endFill=0;" edge="1" parent="1" source="rfBpb2KZAe2ndQMYpnKj-8" target="rfBpb2KZAe2ndQMYpnKj-22">
          <mxGeometry relative="1" as="geometry" />
        </mxCell>
        <mxCell id="rfBpb2KZAe2ndQMYpnKj-54" value="N" style="edgeLabel;html=1;align=center;verticalAlign=middle;resizable=0;points=[];" vertex="1" connectable="0" parent="rfBpb2KZAe2ndQMYpnKj-23">
          <mxGeometry x="-0.2314" y="-3" relative="1" as="geometry">
            <mxPoint x="-1" as="offset" />
          </mxGeometry>
        </mxCell>
        <mxCell id="rfBpb2KZAe2ndQMYpnKj-8" value="&lt;font style=&quot;vertical-align: inherit;&quot; dir=&quot;auto&quot;&gt;&lt;font style=&quot;vertical-align: inherit;&quot; dir=&quot;auto&quot;&gt;Clientes&lt;/font&gt;&lt;/font&gt;" style="rounded=0;whiteSpace=wrap;html=1;" vertex="1" parent="1">
          <mxGeometry x="560" y="85" width="120" height="60" as="geometry" />
        </mxCell>
        <mxCell id="rfBpb2KZAe2ndQMYpnKj-9" value="&lt;font style=&quot;vertical-align: inherit;&quot; dir=&quot;auto&quot;&gt;&lt;font style=&quot;vertical-align: inherit;&quot; dir=&quot;auto&quot;&gt;Edereço&lt;/font&gt;&lt;/font&gt;" style="ellipse;whiteSpace=wrap;html=1;" vertex="1" parent="1">
          <mxGeometry x="565" y="170" width="110" height="70" as="geometry" />
        </mxCell>
        <mxCell id="rfBpb2KZAe2ndQMYpnKj-10" value="&lt;font style=&quot;vertical-align: inherit;&quot; dir=&quot;auto&quot;&gt;&lt;font style=&quot;vertical-align: inherit;&quot; dir=&quot;auto&quot;&gt;Nome&lt;/font&gt;&lt;/font&gt;" style="ellipse;whiteSpace=wrap;html=1;" vertex="1" parent="1">
          <mxGeometry x="400" y="80" width="110" height="70" as="geometry" />
        </mxCell>
        <mxCell id="rfBpb2KZAe2ndQMYpnKj-11" value="&lt;font style=&quot;vertical-align: inherit;&quot; dir=&quot;auto&quot;&gt;&lt;font style=&quot;vertical-align: inherit;&quot; dir=&quot;auto&quot;&gt;CPF&lt;/font&gt;&lt;/font&gt;" style="ellipse;whiteSpace=wrap;html=1;" vertex="1" parent="1">
          <mxGeometry x="717" y="80" width="110" height="70" as="geometry" />
        </mxCell>
        <mxCell id="rfBpb2KZAe2ndQMYpnKj-19" value="" style="edgeStyle=orthogonalEdgeStyle;rounded=0;orthogonalLoop=1;jettySize=auto;html=1;" edge="1" parent="1" source="rfBpb2KZAe2ndQMYpnKj-15" target="rfBpb2KZAe2ndQMYpnKj-16">
          <mxGeometry relative="1" as="geometry" />
        </mxCell>
        <mxCell id="rfBpb2KZAe2ndQMYpnKj-20" value="" style="edgeStyle=orthogonalEdgeStyle;rounded=0;orthogonalLoop=1;jettySize=auto;html=1;" edge="1" parent="1" source="rfBpb2KZAe2ndQMYpnKj-15" target="rfBpb2KZAe2ndQMYpnKj-17">
          <mxGeometry relative="1" as="geometry" />
        </mxCell>
        <mxCell id="rfBpb2KZAe2ndQMYpnKj-21" value="" style="edgeStyle=orthogonalEdgeStyle;rounded=0;orthogonalLoop=1;jettySize=auto;html=1;" edge="1" parent="1" source="rfBpb2KZAe2ndQMYpnKj-15" target="rfBpb2KZAe2ndQMYpnKj-18">
          <mxGeometry relative="1" as="geometry" />
        </mxCell>
        <mxCell id="rfBpb2KZAe2ndQMYpnKj-15" value="&lt;font style=&quot;vertical-align: inherit;&quot; dir=&quot;auto&quot;&gt;&lt;font style=&quot;vertical-align: inherit;&quot; dir=&quot;auto&quot;&gt;Compras&lt;/font&gt;&lt;/font&gt;" style="rounded=0;whiteSpace=wrap;html=1;" vertex="1" parent="1">
          <mxGeometry x="320" y="350" width="120" height="60" as="geometry" />
        </mxCell>
        <mxCell id="rfBpb2KZAe2ndQMYpnKj-16" value="&lt;font style=&quot;vertical-align: inherit;&quot; dir=&quot;auto&quot;&gt;&lt;font style=&quot;vertical-align: inherit;&quot; dir=&quot;auto&quot;&gt;Total&lt;/font&gt;&lt;/font&gt;" style="ellipse;whiteSpace=wrap;html=1;" vertex="1" parent="1">
          <mxGeometry x="325" y="450" width="110" height="70" as="geometry" />
        </mxCell>
        <mxCell id="rfBpb2KZAe2ndQMYpnKj-17" value="&lt;font style=&quot;vertical-align: inherit;&quot; dir=&quot;auto&quot;&gt;&lt;font style=&quot;vertical-align: inherit;&quot; dir=&quot;auto&quot;&gt;Valor&amp;nbsp;&lt;/font&gt;&lt;/font&gt;" style="ellipse;whiteSpace=wrap;html=1;" vertex="1" parent="1">
          <mxGeometry x="540" y="345" width="110" height="70" as="geometry" />
        </mxCell>
        <mxCell id="rfBpb2KZAe2ndQMYpnKj-18" value="&lt;font style=&quot;vertical-align: inherit;&quot; dir=&quot;auto&quot;&gt;&lt;font style=&quot;vertical-align: inherit;&quot; dir=&quot;auto&quot;&gt;Data&lt;/font&gt;&lt;/font&gt;" style="ellipse;whiteSpace=wrap;html=1;" vertex="1" parent="1">
          <mxGeometry x="140" y="345" width="110" height="70" as="geometry" />
        </mxCell>
        <mxCell id="rfBpb2KZAe2ndQMYpnKj-22" value="&lt;font style=&quot;vertical-align: inherit;&quot; dir=&quot;auto&quot;&gt;&lt;font style=&quot;vertical-align: inherit;&quot; dir=&quot;auto&quot;&gt;podem fazer&lt;/font&gt;&lt;/font&gt;" style="rhombus;whiteSpace=wrap;html=1;" vertex="1" parent="1">
          <mxGeometry x="421" y="200" width="96" height="90" as="geometry" />
        </mxCell>
        <mxCell id="rfBpb2KZAe2ndQMYpnKj-41" style="edgeStyle=orthogonalEdgeStyle;rounded=0;orthogonalLoop=1;jettySize=auto;html=1;exitX=0.5;exitY=1;exitDx=0;exitDy=0;entryX=0.25;entryY=0;entryDx=0;entryDy=0;endArrow=none;endFill=0;" edge="1" parent="1" source="rfBpb2KZAe2ndQMYpnKj-30" target="rfBpb2KZAe2ndQMYpnKj-15">
          <mxGeometry relative="1" as="geometry">
            <Array as="points">
              <mxPoint x="275" y="320" />
              <mxPoint x="350" y="320" />
            </Array>
          </mxGeometry>
        </mxCell>
        <mxCell id="rfBpb2KZAe2ndQMYpnKj-42" value="1" style="edgeLabel;html=1;align=center;verticalAlign=middle;resizable=0;points=[];" vertex="1" connectable="0" parent="rfBpb2KZAe2ndQMYpnKj-41">
          <mxGeometry x="0.1885" y="3" relative="1" as="geometry">
            <mxPoint as="offset" />
          </mxGeometry>
        </mxCell>
        <mxCell id="rfBpb2KZAe2ndQMYpnKj-30" value="&lt;font style=&quot;vertical-align: inherit;&quot; dir=&quot;auto&quot;&gt;&lt;font style=&quot;vertical-align: inherit;&quot; dir=&quot;auto&quot;&gt;disponiveis para&amp;nbsp;&lt;/font&gt;&lt;/font&gt;" style="rhombus;whiteSpace=wrap;html=1;" vertex="1" parent="1">
          <mxGeometry x="230" y="190" width="90" height="90" as="geometry" />
        </mxCell>
        <mxCell id="rfBpb2KZAe2ndQMYpnKj-37" style="edgeStyle=orthogonalEdgeStyle;rounded=0;orthogonalLoop=1;jettySize=auto;html=1;exitX=0.5;exitY=1;exitDx=0;exitDy=0;entryX=0.639;entryY=-0.001;entryDx=0;entryDy=0;entryPerimeter=0;endArrow=none;endFill=0;" edge="1" parent="1" source="rfBpb2KZAe2ndQMYpnKj-22" target="rfBpb2KZAe2ndQMYpnKj-15">
          <mxGeometry relative="1" as="geometry" />
        </mxCell>
        <mxCell id="rfBpb2KZAe2ndQMYpnKj-38" value="&lt;font style=&quot;vertical-align: inherit;&quot; dir=&quot;auto&quot;&gt;&lt;font style=&quot;vertical-align: inherit;&quot; dir=&quot;auto&quot;&gt;N&lt;/font&gt;&lt;/font&gt;" style="edgeLabel;html=1;align=center;verticalAlign=middle;resizable=0;points=[];" vertex="1" connectable="0" parent="rfBpb2KZAe2ndQMYpnKj-37">
          <mxGeometry x="0.0516" y="-3" relative="1" as="geometry">
            <mxPoint as="offset" />
          </mxGeometry>
        </mxCell>
        <mxCell id="rfBpb2KZAe2ndQMYpnKj-52" style="edgeStyle=orthogonalEdgeStyle;rounded=0;orthogonalLoop=1;jettySize=auto;html=1;exitX=0.5;exitY=1;exitDx=0;exitDy=0;" edge="1" parent="1" source="rfBpb2KZAe2ndQMYpnKj-45" target="rfBpb2KZAe2ndQMYpnKj-47">
          <mxGeometry relative="1" as="geometry" />
        </mxCell>
        <mxCell id="rfBpb2KZAe2ndQMYpnKj-53" value="1" style="edgeLabel;html=1;align=center;verticalAlign=middle;resizable=0;points=[];" vertex="1" connectable="0" parent="rfBpb2KZAe2ndQMYpnKj-52">
          <mxGeometry x="-0.5214" y="2" relative="1" as="geometry">
            <mxPoint as="offset" />
          </mxGeometry>
        </mxCell>
        <mxCell id="rfBpb2KZAe2ndQMYpnKj-45" value="Loja" style="rounded=0;whiteSpace=wrap;html=1;" vertex="1" parent="1">
          <mxGeometry x="70" y="-150" width="120" height="60" as="geometry" />
        </mxCell>
        <mxCell id="rfBpb2KZAe2ndQMYpnKj-49" value="" style="edgeStyle=orthogonalEdgeStyle;rounded=0;orthogonalLoop=1;jettySize=auto;html=1;endArrow=none;endFill=0;" edge="1" parent="1" source="rfBpb2KZAe2ndQMYpnKj-47" target="rfBpb2KZAe2ndQMYpnKj-1">
          <mxGeometry relative="1" as="geometry" />
        </mxCell>
        <mxCell id="rfBpb2KZAe2ndQMYpnKj-51" value="N" style="edgeLabel;html=1;align=center;verticalAlign=middle;resizable=0;points=[];" vertex="1" connectable="0" parent="rfBpb2KZAe2ndQMYpnKj-49">
          <mxGeometry x="0.3752" y="1" relative="1" as="geometry">
            <mxPoint as="offset" />
          </mxGeometry>
        </mxCell>
        <mxCell id="rfBpb2KZAe2ndQMYpnKj-47" value="vende" style="rhombus;whiteSpace=wrap;html=1;" vertex="1" parent="1">
          <mxGeometry x="95" y="-40" width="70" height="70" as="geometry" />
        </mxCell>
      </root>
    </mxGraphModel>
  </diagram>
</mxfile>
